<svg id="bf52a71a-a84a-462a-91a7-a17cf60572fd" data-name="Layer 1" xmlns="http://www.w3.org/2000/svg" viewBox="0 0 16 16"><defs><style>.f0ef7c28-9d2b-491a-8a00-cae81565cc6c{fill:#cbcbcb;}</style></defs><path class="f0ef7c28-9d2b-491a-8a00-cae81565cc6c" d="M6,7.31H3.82A1.67,1.67,0,0,1,2.15,5.64V3.76A1.67,1.67,0,0,1,3.82,2.09H6A1.67,1.67,0,0,1,7.68,3.76V5.64A1.67,1.67,0,0,1,6,7.31ZM3.82,2.84a.93.93,0,0,0-.92.92V5.64a.92.92,0,0,0,.92.92H6a.92.92,0,0,0,.92-.92V3.76A.92.92,0,0,0,6,2.84Z"/><path class="f0ef7c28-9d2b-491a-8a00-cae81565cc6c" d="M6,13.91H3.82a1.67,1.67,0,0,1-1.67-1.67V10.05A1.67,1.67,0,0,1,3.82,8.38H6a1.67,1.67,0,0,1,1.67,1.67v2.19A1.67,1.67,0,0,1,6,13.91ZM3.82,9.13a.93.93,0,0,0-.92.92v2.19a.93.93,0,0,0,.92.92H6a.92.92,0,0,0,.92-.92V10.05A.92.92,0,0,0,6,9.13Z"/><path class="f0ef7c28-9d2b-491a-8a00-cae81565cc6c" d="M12.35,13.91H9.81a1.5,1.5,0,0,1-1.49-1.5v-.56a1.49,1.49,0,0,1,1.49-1.49h2.54a1.5,1.5,0,0,1,1.5,1.49v.56A1.5,1.5,0,0,1,12.35,13.91Zm-2.54-2.8a.74.74,0,0,0-.74.74v.56a.75.75,0,0,0,.74.75h2.54a.76.76,0,0,0,.75-.75v-.56a.75.75,0,0,0-.75-.74Z"/><path class="f0ef7c28-9d2b-491a-8a00-cae81565cc6c" d="M12.18,9.21H10A1.67,1.67,0,0,1,8.32,7.54V3.76A1.67,1.67,0,0,1,10,2.09h2.19a1.67,1.67,0,0,1,1.67,1.67V7.54A1.67,1.67,0,0,1,12.18,9.21ZM10,2.84a.92.92,0,0,0-.92.92V7.54a.92.92,0,0,0,.92.92h2.19a.92.92,0,0,0,.92-.92V3.76a.93.93,0,0,0-.92-.92Z"/></svg>