<svg id="a7f599c2-633e-4cbf-ade3-ae7d7f39fbc5" data-name="Layer 1" xmlns="http://www.w3.org/2000/svg" viewBox="0 0 16 16"><defs><style>.b661da40-4415-40a1-b2d2-3acdc0d20114{fill:#cbcbcb;}</style></defs><path class="b661da40-4415-40a1-b2d2-3acdc0d20114" d="M12.12,4.9,10,2.81a1.49,1.49,0,0,0-1-.44H4.93a1.49,1.49,0,0,0-1,.44,1.48,1.48,0,0,0-.43,1v8.3a1.48,1.48,0,0,0,1.48,1.48h6.14a1.48,1.48,0,0,0,1.48-1.48V5.94A1.53,1.53,0,0,0,12.12,4.9Zm-.79.3H9.84a.11.11,0,0,1-.12-.11V3.59Zm-.27,7.66H4.93a.71.71,0,0,1-.71-.71V3.85a.65.65,0,0,1,.21-.49.65.65,0,0,1,.5-.22h0l4,0V5.09A.89.89,0,0,0,9.84,6h1.93v6.16A.72.72,0,0,1,11.06,12.86Z"/></svg>