<svg id="bf9f8bbb-fe8f-44f4-b4b5-8b39090f6c89" data-name="Layer 1" xmlns="http://www.w3.org/2000/svg" viewBox="0 0 16 16"><defs><style>.a4bc44d5-85f1-4ef3-8aea-e1536e8dc7d3{fill:#cbcbcb;}</style></defs><path class="a4bc44d5-85f1-4ef3-8aea-e1536e8dc7d3" d="M5.88,6.53a2.76,2.76,0,0,0,.79-.47,1.11,1.11,0,0,0,0,.19v.8a3.06,3.06,0,0,1-.77.32,3.38,3.38,0,0,1-1,.16v.66a.3.3,0,0,1-.47.26l-1.63-1a.3.3,0,0,1,0-.51L4.45,5.83a.3.3,0,0,1,.47.26v.65A2.8,2.8,0,0,0,5.88,6.53Z"/><path class="a4bc44d5-85f1-4ef3-8aea-e1536e8dc7d3" d="M8.57,3.77a4,4,0,0,1-.13,1,4,4,0,0,1-.3.77H7.36a.64.64,0,0,0-.2,0A3,3,0,0,0,4.8.8a3,3,0,0,0-3,3,2.84,2.84,0,0,0,.64,1.84.41.41,0,0,1-.07.56.39.39,0,0,1-.55-.06A3.77,3.77,0,1,1,8.57,3.77Z"/><path class="a4bc44d5-85f1-4ef3-8aea-e1536e8dc7d3" d="M4.8,1.67a.39.39,0,0,0-.39.39V3.77a.42.42,0,0,0,.22.36l1.18.58a.33.33,0,0,0,.17,0,.4.4,0,0,0,.36-.22A.39.39,0,0,0,6.16,4l-1-.47V2.06A.41.41,0,0,0,4.8,1.67Z"/><path class="a4bc44d5-85f1-4ef3-8aea-e1536e8dc7d3" d="M14.54,7.29,12.45,5.2a1.49,1.49,0,0,0-1-.44h-4A1.49,1.49,0,0,0,5.88,6.25v8.27A1.48,1.48,0,0,0,7.36,16h6.13A1.48,1.48,0,0,0,15,14.52V8.32A1.52,1.52,0,0,0,14.54,7.29ZM12.14,6,13.75,7.6H12.26a.12.12,0,0,1-.12-.12Zm2,8.52a.72.72,0,0,1-.71.73H7.36a.71.71,0,0,1-.71-.71V6.25a1.11,1.11,0,0,1,0-.19.71.71,0,0,1,.19-.31.73.73,0,0,1,.3-.19.64.64,0,0,1,.2,0h.78l3.23,0V7.48a.89.89,0,0,0,.89.88h1.93Z"/><path class="a4bc44d5-85f1-4ef3-8aea-e1536e8dc7d3" d="M12.37,11l-2.18,2.19a.34.34,0,0,1-.28.12.42.42,0,0,1-.27-.12L8.47,12.05a.38.38,0,0,1,0-.54.36.36,0,0,1,.54,0l.9.9,1.91-1.93a.39.39,0,0,1,.55.55Z"/></svg>