<svg id="adf4c2a2-2334-4d45-906d-767bd30a9d3c" data-name="Layer 1" xmlns="http://www.w3.org/2000/svg" viewBox="0 0 16 16"><defs><style>.be38b2ed-fb63-4ad3-aa2e-a5870810139d{fill:#cbcbcb;}</style></defs><path class="be38b2ed-fb63-4ad3-aa2e-a5870810139d" d="M14,6.92c-.1-.06-.69-.42-1.05-.6l-.26-.63c.12-.39.29-1.07.32-1.18a.8.8,0,0,0-.21-.73l-.58-.58A.81.81,0,0,0,11.48,3c-.09,0-.78.2-1.17.32l-.63-.26c-.19-.37-.55-1-.61-1.06a.76.76,0,0,0-.66-.36H7.59A.79.79,0,0,0,6.92,2s-.4.66-.6,1.06l-.63.26C5.3,3.19,4.63,3,4.52,3a.81.81,0,0,0-.74.21l-.58.58A.81.81,0,0,0,3,4.52c0,.18.21.8.32,1.17l-.26.63c-.37.19-1,.55-1,.6a.78.78,0,0,0-.37.67v.82A.78.78,0,0,0,2,9.08c.1.06.69.42,1,.6l.26.63C3.19,10.7,3,11.38,3,11.49a.8.8,0,0,0,.21.73l.58.58a.81.81,0,0,0,.74.21c.09,0,.78-.2,1.17-.32l.63.26c.19.37.55,1,.61,1.06a.76.76,0,0,0,.66.36h.83A.8.8,0,0,0,9.08,14s.41-.67.6-1.06l.63-.26c.41.13,1.1.3,1.18.32a.78.78,0,0,0,.73-.21l.58-.58a.78.78,0,0,0,.21-.74c0-.18-.2-.8-.32-1.17L13,9.68c.36-.19,1-.55,1.05-.61a.75.75,0,0,0,.37-.66V7.59A.78.78,0,0,0,14,6.92Zm-2.08,3.51c.11.28.32,1.11.35,1.23h0l-.58.58h0c-.15,0-1-.24-1.23-.34l-.14-.05-1.17.49h0l-.06.14c-.13.27-.57,1-.63,1.11H7.58c-.1-.16-.52-.86-.63-1.11l-.06-.14-1.17-.48h0l-.14.06a12.69,12.69,0,0,1-1.23.34h0l-.58-.58h0c0-.16.24-1,.34-1.23l0-.13h0L3.66,9.13h0l-.14-.06c-.26-.13-1-.55-1.11-.64h0V7.59h0c.14-.09.86-.52,1.11-.63l.14-.07.48-1.17h0l0-.14C4,5.28,3.77,4.44,3.74,4.33h0l.58-.58h0c.2,0,1,.24,1.23.34l.14,0,1.17-.48h0L7,3.5c.13-.27.56-1,.63-1.11h.84a12.62,12.62,0,0,1,.63,1.1l.07.14,1.17.48h0l.14,0c.28-.11,1.1-.32,1.23-.35h0l.58.58h0c0,.18-.24,1-.34,1.23l0,.13h0l.48,1.17h0l.14.06c.26.12,1,.55,1.11.63v.84h0c-.15.1-.87.52-1.11.63l-.14.06-.48,1.17h0Z"/><path class="be38b2ed-fb63-4ad3-aa2e-a5870810139d" d="M8,5a3,3,0,1,0,3,3A3,3,0,0,0,8,5Zm2.23,3A2.23,2.23,0,1,1,8,5.77,2.22,2.22,0,0,1,10.23,8Z"/></svg>