<svg id="bab05b5a-9277-47de-ab5a-6182e54db94d" data-name="Layer 1" xmlns="http://www.w3.org/2000/svg" viewBox="0 0 16 16"><defs><style>.e5bd0995-9e8a-470c-a3de-2e8e121edd34{fill:#81d0d3;}</style></defs><path class="e5bd0995-9e8a-470c-a3de-2e8e121edd34" d="M8,5a3,3,0,1,0,3,3A3,3,0,0,0,8,5Zm2.23,3A2.23,2.23,0,1,1,8,5.77,2.22,2.22,0,0,1,10.23,8Z"/><path class="e5bd0995-9e8a-470c-a3de-2e8e121edd34" d="M13,6.32l-.26-.63c.12-.39.29-1.06.32-1.18a.79.79,0,0,0-.21-.73l-.58-.58A.81.81,0,0,0,11.48,3c-.18,0-.8.2-1.17.32l-.63-.26c-.19-.37-.55-1-.61-1.06a.76.76,0,0,0-.66-.36H7.59A.76.76,0,0,0,6.93,2c0,.06-.41.68-.61,1.06l-.63.26C5.3,3.19,4.62,3,4.52,3a.81.81,0,0,0-.74.21l-.58.58A.8.8,0,0,0,3,4.52v0c.12.5.24.91.31,1.15l-.26.63c-.36.19-1,.55-1,.6a.78.78,0,0,0-.37.67v.82A.78.78,0,0,0,2,9.08s.66.4,1,.6l.26.63C3.19,10.7,3,11.37,3,11.49a.79.79,0,0,0,.21.73l.58.58a.81.81,0,0,0,.74.21c.18,0,.8-.2,1.17-.32l.63.26c.19.37.55,1,.61,1.06a.76.76,0,0,0,.66.36h.83A.8.8,0,0,0,9.08,14c0-.06.41-.68.6-1.06l.63-.26c.39.12,1.06.29,1.18.32a.79.79,0,0,0,.73-.21l.58-.58a.78.78,0,0,0,.21-.74v0c-.13-.5-.24-.91-.32-1.15L13,9.68c.37-.19,1-.55,1.05-.61a.75.75,0,0,0,.37-.66V7.59A.78.78,0,0,0,14,6.92S13.34,6.52,13,6.32Zm-1,4.11c.11.27.31,1.07.35,1.23h0l-.58.58h0c-.17,0-1-.24-1.23-.34l-.13,0h0l-1.17.48h0l-.06.14c-.13.27-.57,1-.63,1.11H7.58c-.1-.15-.52-.87-.63-1.11l-.06-.14-1.17-.48h0l-.14.06c-.27.1-1.07.31-1.23.34h0l-.58-.58h0c0-.16.24-1,.34-1.23l0-.13h0L3.66,9.13h0l-.14-.06c-.27-.13-1-.57-1.11-.64h0V7.59h0c.14-.09.85-.52,1.11-.63l.14-.07.48-1.17h0l0-.14C4,5.28,3.77,4.44,3.74,4.33h0l.58-.58s0,0,0,0c.17,0,1,.24,1.23.34l.13,0h0l1.17-.48h0L7,3.5c.13-.27.56-1,.63-1.11h.84a11.61,11.61,0,0,1,.63,1.1l.07.14,1.17.48h0l.14,0c.27-.1,1.05-.3,1.23-.34h0l.58.58h0c0,.2-.24,1-.34,1.23l0,.13h0l.48,1.17h0l.14.06c.27.13,1,.56,1.11.63h0v.83h0c-.14.09-.86.51-1.11.63l-.14.06-.48,1.17h0Z"/></svg>