<svg id="b51e9225-94ae-4488-b036-f8d0cb538dfd" data-name="Layer 1" xmlns="http://www.w3.org/2000/svg" viewBox="0 0 16 16"><defs><style>.ea1f2e97-b2d6-4645-8781-62c63c98449d{fill:#cbcbcb;}</style></defs><path class="ea1f2e97-b2d6-4645-8781-62c63c98449d" d="M1.26,8.62a.34.34,0,0,0,.47,0L3.34,7.2a.34.34,0,0,0,0-.49.35.35,0,0,0-.49,0h0L1.52,7.9.79,7.17a.36.36,0,0,0-.49,0,.34.34,0,0,0,0,.49Z"/><path class="ea1f2e97-b2d6-4645-8781-62c63c98449d" d="M8,7.31H4.25a.34.34,0,0,0-.34.34A.35.35,0,0,0,4.25,8H8a.35.35,0,0,0,.34-.35A.34.34,0,0,0,8,7.31Z"/><path class="ea1f2e97-b2d6-4645-8781-62c63c98449d" d="M1.26,11.23a.34.34,0,0,0,.47,0L3.34,9.81a.35.35,0,1,0-.46-.52L1.52,10.5.79,9.78a.34.34,0,0,0-.49,0,.34.34,0,0,0,0,.49Z"/><path class="ea1f2e97-b2d6-4645-8781-62c63c98449d" d="M8,9.91H4.25a.35.35,0,0,0,0,.69H8a.35.35,0,0,0,0-.69Z"/><path class="ea1f2e97-b2d6-4645-8781-62c63c98449d" d="M1.26,6a.33.33,0,0,0,.47,0L3.34,4.6a.35.35,0,1,0-.46-.52L1.52,5.29.79,4.57a.34.34,0,0,0-.49,0,.34.34,0,0,0,0,.49Z"/><path class="ea1f2e97-b2d6-4645-8781-62c63c98449d" d="M8,4.7H4.25a.35.35,0,0,0,0,.7H8a.35.35,0,0,0,0-.7Z"/><path class="ea1f2e97-b2d6-4645-8781-62c63c98449d" d="M15.37,4.9,13.28,2.81a1.49,1.49,0,0,0-1-.44H8.18A1.49,1.49,0,0,0,6.7,3.86v8.29a1.48,1.48,0,0,0,1.48,1.48h6.14a1.48,1.48,0,0,0,1.48-1.48V5.94A1.53,1.53,0,0,0,15.37,4.9ZM13,3.59l1.61,1.62H13.09A.12.12,0,0,1,13,5.09Zm2,8.54a.72.72,0,0,1-.71.73H8.18a.71.71,0,0,1-.71-.71V3.86a1.11,1.11,0,0,1,0-.19.71.71,0,0,1,.19-.31A.73.73,0,0,1,8,3.17a.64.64,0,0,1,.2,0H9l3.24,0V5.09a.9.9,0,0,0,.89.89H15Z"/><path class="ea1f2e97-b2d6-4645-8781-62c63c98449d" d="M13.2,8.65,11,10.84a.34.34,0,0,1-.28.12.42.42,0,0,1-.27-.12L9.29,9.67a.38.38,0,0,1,0-.54.36.36,0,0,1,.54,0l.9.9L12.65,8.1a.39.39,0,0,1,.55.55Z"/></svg>